<svg width="640" height="220" viewBox="0 0 640 220" fill="none" xmlns="http://www.w3.org/2000/svg">
  <defs>
    <linearGradient id="alphaRed" x1="58" y1="20" x2="286" y2="132" gradientUnits="userSpaceOnUse">
      <stop stop-color="#FF5A5F"/>
      <stop offset="1" stop-color="#C5121A"/>
    </linearGradient>
    <filter id="softShadow" x="0" y="0" width="640" height="220" filterUnits="userSpaceOnUse" color-interpolation-filters="sRGB">
      <feOffset dy="8"/>
      <feGaussianBlur stdDeviation="8"/>
      <feColorMatrix type="matrix" values="0 0 0 0 0.027 0 0 0 0 0.035 0 0 0 0 0.07 0 0 0 0.32 0"/>
      <feBlend in2="SourceGraphic" result="shape"/>
    </filter>
  </defs>
  <g filter="url(#softShadow)">
    <path d="M74 132L129 27H161L217 132H180L145 62L109 132H74Z" fill="url(#alphaRed)"/>
    <path d="M56 138C83 119 102 107 117 104C131 101 146 106 160 98C175 90 189 69 221 45" stroke="url(#alphaRed)" stroke-width="16" stroke-linecap="round" stroke-linejoin="round"/>
    <path d="M210 34L257 44L225 84L210 34Z" fill="url(#alphaRed)"/>
    <path d="M228 46L316 69L289 152L201 129L228 46Z" fill="white"/>
    <path d="M228 46L316 69L289 152L201 129L228 46Z" stroke="#E5E7EB" stroke-width="2"/>
    <path d="M228 46L258 103M316 69L258 103M201 129L258 103M289 152L258 103" stroke="#0F172A" stroke-width="4" stroke-linecap="round"/>
    <circle cx="248" cy="86" r="5.5" fill="#C5121A"/>
    <circle cx="272" cy="92" r="5.5" fill="#C5121A"/>
    <circle cx="261" cy="111" r="5.5" fill="#C5121A"/>
    <path d="M248 86L272 92L261 111L248 86Z" stroke="#C5121A" stroke-width="3" stroke-linejoin="round"/>
    <text x="60" y="193" fill="#D61F28" font-family="Segoe UI, Arial, sans-serif" font-size="76" font-weight="800">Alpha</text>
    <text x="291" y="193" fill="white" font-family="Segoe UI, Arial, sans-serif" font-size="76" font-weight="800">View</text>
    <text x="175" y="214" fill="#E5E7EB" font-family="Segoe UI, Arial, sans-serif" font-size="28" font-weight="700" letter-spacing="1.5">SMTP System</text>
  </g>
</svg>
